#!OML:ASF F:\VICON\USERDATA\INSTALL\rory3\rory3.ASF
:FULLY-SPECIFIED
:DEGREES
66
root -0.7795640624377105 17.276020992931528 33.30062188384619 0.852974577379805 4.227166683229434 -0.8621069961241566
lfemur -21.39037615274778 -0.6135140009821995 -23.850720624804165
ltibia 46.09015871203545
lfoot -5.490029150353576 -13.548592306167357
ltoes 7.356801955665539
rfemur -5.098425788868793 -9.005439896118279 24.65899976108105
rtibia 98.54022629788568
rfoot 13.949083608424665 -10.676133446813502
rtoes 15.090705324355891
lowerback 15.96488765919783 1.1609771629250707 1.9161367251862498
upperback -0.12287831615150602 1.7221165181597782 0.18070708704408522
thorax -9.802495925951476 0.7432485160538043 -0.39869093837327574
lowerneck -17.90598453849599 -3.9704468241514697 -2.3151144024038404
upperneck 15.918248004630522 -5.179500460131056 3.2858588149873493
head 8.31468547655337 -2.2165717583602955 0.7944271997075264
lclavicle 1.078052932452527e-16 1.6657345072064036e-15
lhumerus -57.36308111511724 -6.42925725251879 91.79402623830714
lradius 101.27534492459975
lwrist 33.725870025632254
lhand -28.90761674779048 -1.306642213660627
lfingers 7.125019999999998
lthumb -1.8994064778703188 29.821795573643204
rclavicle 1.2427173676533771e-16 1.6753815561415302e-15
rhumerus -36.75149732351136 14.482966225280503 -96.58800358190429
rradius 108.65877857684802
rwrist -19.4190465165287
rhand -18.56975561759507 39.34371069713237
rfingers 7.125019999999998
rthumb 7.148658745921627 9.931920922048874
67
root -0.7603666693847191 17.135806471571446 33.96020816094338 0.8538631551165947 5.122068523451695 2.5179818608242126
lfemur -18.83818525468409 -2.241676758366302 -27.28110137524926
ltibia 50.370440677815
lfoot -9.223695944078148 -10.154457891202409
ltoes 6.941977709210455
rfemur -10.025400310736291 -11.049636842656962 20.299531450135724
rtibia 106.24062385072776
rfoot 11.363854092241885 -9.486519230359722
rtoes 15.754521757374587
lowerback 16.23938378305381 1.01738579692546 -0.6975474085754351
upperback 0.0800100886925863 1.0701735166827628 -0.8632401374043773
thorax -10.002147190976123 0.5532984850137509 0.3853478249617428
lowerneck -18.366024081927108 -3.9435625061925696 -2.2016515518738826
upperneck 15.881979459063004 -5.169273481610949 3.336944786871686
head 8.358192803824954 -2.18099254616084 0.7991285785447728
lclavicle 1.095927170293548e-16 1.6669778050253884e-15
lhumerus -54.21458359344971 -7.271436518949068 92.00498862543664
lradius 100.11195036525567
lwrist 34.794860460221365
lhand -29.607284103320218 4.683634841725332
lfingers 7.125019999999998
lthumb -2.4776192557100774 35.519992823877196
rclavicle 1.2788821961154282e-16 1.6772226417567794e-15
rhumerus -37.456611562836265 12.762260851848852 -96.9139322668527
rradius 105.11820642901318
rwrist -18.95385975317544
rhand -18.70477116646946 39.012113944642536
rfingers 7.125019999999998
rthumb 7.204654411136607 9.562769973739552
68
root -0.7823426543032576 17.017773390390857 34.859193303455264 2.2395663270676818 4.8170428295912675 1.38501176043681
lfemur -17.9285221127496 -3.022826695907363 -25.83307553281716
ltibia 54.03528480205258
lfoot -12.212660750832846 -7.613544854647934
ltoes 2.7650442075601855
rfemur -17.188462660619816 -10.162485038379224 21.188797080522598
rtibia 112.0405840717203
rfoot 10.581285711672429 -9.374104498778566
rtoes 15.959574670909234
lowerback 15.179526651250358 0.8788020593190817 -0.05439939724682652
upperback -0.12617618159705063 1.1089326717990673 -0.6556134893459492
thorax -9.505868787774643 0.5598914362139554 0.4817401125938022
lowerneck -19.438094085395058 -3.9441032618802367 -2.1971800490113993
upperneck 16.153122394557602 -5.179279963237869 3.3501135433606164
head 8.454502627345436 -2.167723138012832 0.7755952158081081
lclavicle 1.099910738141376e-16 1.6673123044336794e-15
lhumerus -50.84495008725678 -8.03441892109338 92.12157915528991
lradius 99.18053873062574
lwrist 35.20357342603479
lhand -29.394816542842005 9.284245977561241
lfingers 7.125019999999998
lthumb -3.1669265472174306 39.58744539086599
rclavicle 1.2401348962748598e-16 1.6750169626044037e-15
rhumerus -38.8766122155865 10.66002907910043 -97.10560476558626
rradius 102.65810052138747
rwrist -19.003230184516635
rhand -18.56062804610037 38.69391398055552
rfingers 7.125019999999998
rthumb 7.118863374084831 9.850931129976065
69
root -0.7989678797336888 16.970885643766984 35.728112676695154 2.8237388544262174 3.6998242461400666 1.3841826147662895
lfemur -15.922877055080207 -2.2764039906279745 -25.89647693584475
ltibia 55.96424955176089
lfoot -13.51064231582648 -5.557368616548536
ltoes 0.07804069181319839
rfemur -23.2421854931352 -8.24775744213899 21.051452594152714
rtibia 115.58204991653933
rfoot 9.647300285298332 -9.202981112166958
rtoes 16.3786964095803
lowerback 14.937173983881753 1.0527002049640535 -0.5120405805141003
upperback -0.1936858594250781 1.283005274955528 -0.6751004032837645
thorax -9.498555317351332 0.6770150918073065 0.7814396000485127
lowerneck -19.96140258446525 -3.7436000264828926 -2.205994273726461
upperneck 16.217407346964468 -4.83233692193212 3.36192308072239
head 8.473343351656863 -1.992822080623672 0.8222696131555725
lclavicle 1.143162389096864e-16 1.6702312840038492e-15
lhumerus -47.978828583520226 -8.458128637620993 92.24201999332281
lradius 99.45058314056683
lwrist 34.56030624168677
lhand -31.97484456341643 18.447250017451463
lfingers 7.125019999999998
lthumb -5.229676957136496 48.646597657440324
rclavicle 1.1729850867093568e-16 1.67057154272821e-15
rhumerus -40.674229718792446 9.1641629399898 -97.0997797610459
rradius 101.38249732102794
rwrist -19.25516524779369
rhand -18.745226756987776 38.704190722772694
rfingers 7.125019999999998
rthumb 7.008583471394058 10.115638666097432
70
root -0.7960942739933252 16.984160702414737 36.58389813871494 3.5428239310217093 3.4029614975403053 1.9317314574757245
lfemur -13.466932370034542 -1.7218116092702784 -26.48197984719456
ltibia 56.10402864041332
lfoot -13.288552538064415 -4.689543195022903
ltoes -3.341946871958127
rfemur -29.090391076322952 -8.011405111678208 20.56222363173312
rtibia 116.77594247968781
rfoot 8.869566484416339 -8.781257667857567
rtoes 13.694273701922267
lowerback 14.543445698552524 0.9192120513170963 -1.0560121145830546
upperback -0.1853264450197965 1.0136720490335522 -0.7999528242622392
thorax -9.202012430494575 0.5581677862138719 1.0079243263291502
lowerneck -20.784546529979714 -3.694485925872105 -2.325708398649195
upperneck 16.346091981968687 -4.693159832418206 3.552585375492621
head 8.525175094065863 -1.9182309496630907 0.9018762718662724
lclavicle 1.173806565818145e-16 1.6722922798576161e-15
lhumerus -45.36334092000966 -8.561377298655081 92.33047837022548
lradius 100.97031568782057
lwrist 33.0819580665268
lhand -30.477095180264456 14.250413247833087
lfingers 7.125019999999998
lthumb -4.249272067101787 45.87780491006563
rclavicle 1.2073989446090753e-16 1.67285315734435e-15
rhumerus -42.034649242028465 9.25417671117462 -97.09291925623509
rradius 100.95902033806473
rwrist -19.86580122834182
rhand -18.79653421855985 38.69040565122509
rfingers 7.125019999999998
rthumb 6.877219692391329 10.67186614615755
71
root -0.7877166759090442 17.07079142193899 37.462437331385885 4.003674814054323 3.0463702237705097 1.8241798759467047
lfemur -10.690323700911662 -0.9338776229688137 -26.40305972914522
ltibia 55.61977924010396
lfoot -11.784759160710237 -4.2989323976645455
ltoes -9.20433080627422
rfemur -33.86006289621441 -7.532412744242889 21.030991107492785
rtibia 115.56422738207891
rfoot 7.4101632971400555 -8.425499627330634
rtoes 10.552979423975431
lowerback 14.511954023953717 0.6893994706044295 -1.0499613257497766
upperback -0.249613295046398 0.640101210426797 -0.7269895753450543
thorax -9.190745324858092 0.39085973388854617 1.1258239712140838
lowerneck -20.91584038652855 -3.4597796393863245 -2.327699966823124
upperneck 15.986023341170133 -4.291343613583882 3.5726248545652504
head 8.33457710383534 -1.7522981761207692 0.9606552794346603
lclavicle 1.1632341153999874e-16 1.6715261325627983e-15
lhumerus -43.41476656782277 -8.470093967168175 92.28672929865398
lradius 104.73196413445936
lwrist 32.39109060436928
lhand -28.42470330855156 5.736424353024295
lfingers 7.125019999999998
lthumb -2.6088954130125597 36.6563948116238
rclavicle 1.2098118760114837e-16 1.672995312970083e-15
rhumerus -43.930429805716514 9.334196504390404 -97.04430169147201
rradius 101.97067137991718
rwrist -20.395894879756938
rhand -18.67551706751146 38.885451577954896
rfingers 7.125019999999998
rthumb 7.253774633632283 10.593737363361369
72
root -0.7557525656818201 17.247547585718298 38.48742937156177 4.0978076488141815 4.136437736534807 1.6556848708109775
lfemur -7.52688740645123 -2.052269999141754 -26.308116271887393
ltibia 54.45362712175163
lfoot -8.938336054949588 -4.629734489224428
ltoes -14.749741407439064
rfemur -36.88777221253164 -9.205181528427435 21.686968257160963
rtibia 111.92186015949324
rfoot 6.987765233924896 -8.105427200927444
rtoes 9.045715772054608
lowerback 14.5094990858181 -0.0805144251919172 -0.5204758831246757
upperback -0.3611728438628886 -0.3518947484001378 -0.5856860229691944
thorax -9.219581618151524 -0.0851146646934069 1.2130800597385896
lowerneck -20.71038033797877 -3.1611096395951934 -2.2097955707581125
upperneck 15.799574034097965 -3.87952536449339 3.298526485807401
head 8.244453877647215 -1.5953072862208724 0.8930121117283436
lclavicle 1.1589904595927872e-16 1.6712571826495366e-15
lhumerus -41.9944705866222 -7.974081438178134 92.10818310481238
lradius 109.96539371045931
lwrist 33.14970824108739
lhand -28.33604088864684 2.8070608808586464
lfingers 7.125019999999998
lthumb -2.377043409683599 32.776467328354755
rclavicle 1.1975874579524378e-16 1.6723114207087713e-15
rhumerus -46.08218019532916 9.897407719326484 -96.98335386025934
rradius 103.27523537635416
rwrist -21.689711830852612
rhand -18.476780383631972 38.95529793420282
rfingers 7.125019999999998
rthumb 7.7397406024426045 10.485391598841918
